<svg xmlns="http://www.w3.org/2000/svg" xmlns:xlink="http://www.w3.org/1999/xlink" width="21.5" height="21.5" viewBox="0 0 21.5 21.5">
  <metadata><?xpacket begin="﻿" id="W5M0MpCehiHzreSzNTczkc9d"?>
<x:xmpmeta xmlns:x="adobe:ns:meta/" x:xmptk="Adobe XMP Core 5.6-c138 79.159824, 2016/09/14-01:09:01        ">
   <rdf:RDF xmlns:rdf="http://www.w3.org/1999/02/22-rdf-syntax-ns#">
      <rdf:Description rdf:about=""/>
   </rdf:RDF>
</x:xmpmeta>
                                                                                                    
                                                                                                    
                                                                                                    
                                                                                                    
                                                                                                    
                                                                                                    
                                                                                                    
                                                                                                    
                                                                                                    
                                                                                                    
                                                                                                    
                                                                                                    
                                                                                                    
                                                                                                    
                                                                                                    
                                                                                                    
                                                                                                    
                                                                                                    
                                                                                                    
                                                                                                    
                           
<?xpacket end="w"?></metadata>
<defs>
    <style>
      .cls-1 {
        fill-rule: evenodd;
        filter: url(#filter);
      }
    </style>
    <filter id="filter" x="375" y="110.5" width="21.5" height="21.5" filterUnits="userSpaceOnUse">
      <feFlood result="flood" flood-color="#4293c4"/>
      <feComposite result="composite" operator="in" in2="SourceGraphic"/>
      <feBlend result="blend" in2="SourceGraphic"/>
    </filter>
  </defs>
  <path id="Forma_1" data-name="Forma 1" class="cls-1" d="M391.209,118.478a0.84,0.84,0,1,1-.84.84A0.84,0.84,0,0,1,391.209,118.478Zm1.932-6.3h-1.092v-0.84a0.84,0.84,0,0,0-1.68,0v0.84h-3.821v-0.84a0.84,0.84,0,0,0-1.68,0v0.84h-3.779v-0.84a0.84,0.84,0,0,0-1.68,0v0.84h-1.05A3.363,3.363,0,0,0,375,115.539v13.1A3.363,3.363,0,0,0,378.359,132h6.425a0.84,0.84,0,1,0,0-1.68h-6.425a1.681,1.681,0,0,1-1.679-1.679v-13.1a1.682,1.682,0,0,1,1.679-1.68h1.05v0.84a0.84,0.84,0,0,0,1.68,0v-0.84h3.779v0.84a0.84,0.84,0,0,0,1.68,0v-0.84h3.821v0.84a0.84,0.84,0,0,0,1.68,0v-0.84h1.092a1.682,1.682,0,0,1,1.679,1.68v4.787a0.84,0.84,0,1,0,1.68,0v-4.787A3.363,3.363,0,0,0,393.141,112.18Zm-1.722,9.658a5.081,5.081,0,1,0,5.081,5.081A5.086,5.086,0,0,0,391.419,121.838Zm0,8.482a3.4,3.4,0,1,1,3.4-3.4A3.4,3.4,0,0,1,391.419,130.32Zm1.218-4.241h-0.378V125.2a0.84,0.84,0,0,0-1.68,0v1.722a0.84,0.84,0,0,0,.84.84h1.218A0.84,0.84,0,0,0,392.637,126.079Zm-5.081-7.6a0.84,0.84,0,1,1-.84.84A0.84,0.84,0,0,1,387.556,118.478Zm-3.654,3.654a0.84,0.84,0,1,1-.84.84A0.84,0.84,0,0,1,383.9,122.132Zm-3.653-3.654a0.84,0.84,0,1,1-.84.84A0.84,0.84,0,0,1,380.249,118.478Zm0,3.654a0.84,0.84,0,1,1-.84.84A0.84,0.84,0,0,1,380.249,122.132Zm0,3.653a0.84,0.84,0,1,1-.84.84A0.84,0.84,0,0,1,380.249,125.785Zm3.653,0a0.84,0.84,0,1,1-.84.84A0.84,0.84,0,0,1,383.9,125.785Zm0-7.307a0.84,0.84,0,1,1-.84.84A0.84,0.84,0,0,1,383.9,118.478Z" transform="translate(-375 -110.5)"/>
</svg>
