<svg xmlns="http://www.w3.org/2000/svg">
  <path id="Forma_1" data-name="Forma 1" class="cls-1" d="M12.6,6.095l-0.84.4a0.59,0.59,0,0,1-.512,0l-0.84-.4-0.151.047a0.475,0.475,0,0,0-.316.45V8.768a4.415,4.415,0,0,0,3.128,0V6.591a0.475,0.475,0,0,0-.316-0.45ZM11.5,3.223a0.689,0.689,0,1,0-.68-0.689A0.685,0.685,0,0,0,11.5,3.223ZM4.472,14.791a0.689,0.689,0,1,0,.68.688A0.685,0.685,0,0,0,4.472,14.791Zm0-1.846a4.536,4.536,0,0,0-2.757,8.088v-1.5a1.679,1.679,0,0,1,1.137-1.6l0.395-.123a0.589,0.589,0,0,1,.431.032l0.794,0.382,0.794-.382A0.589,0.589,0,0,1,5.7,17.817L6.092,17.94a1.679,1.679,0,0,1,1.137,1.6v1.5A4.536,4.536,0,0,0,4.472,12.946Zm0,4.43a1.9,1.9,0,1,1,1.873-1.9A1.887,1.887,0,0,1,4.472,17.376ZM5.72,19.087L5.569,19.04l-0.84.4a0.59,0.59,0,0,1-.512,0l-0.84-.4-0.151.047a0.475,0.475,0,0,0-.316.45v2.177a4.415,4.415,0,0,0,3.128,0V19.537A0.475,0.475,0,0,0,5.72,19.087Zm3.023-11v-1.5a1.68,1.68,0,0,1,1.137-1.6l0.395-.123a0.591,0.591,0,0,1,.431.032L11.5,5.286,12.294,4.9a0.59,0.59,0,0,1,.431-0.032L13.12,4.994a1.679,1.679,0,0,1,1.137,1.6v1.5A4.5,4.5,0,1,0,7.028,4.527,4.54,4.54,0,0,0,8.743,8.088ZM11.5,0.638a1.9,1.9,0,1,1-1.873,1.9A1.887,1.887,0,0,1,11.5.638Zm7.028,12.307a4.536,4.536,0,0,0-2.757,8.088v-1.5a1.679,1.679,0,0,1,1.137-1.6l0.395-.123a0.589,0.589,0,0,1,.431.032l0.794,0.382,0.794-.382a0.589,0.589,0,0,1,.431-0.032l0.395,0.123a1.679,1.679,0,0,1,1.137,1.6v1.5A4.536,4.536,0,0,0,18.528,12.946Zm0,4.43a1.9,1.9,0,1,1,1.873-1.9A1.887,1.887,0,0,1,18.528,17.376Zm1.248,1.712-0.151-.047-0.84.4a0.59,0.59,0,0,1-.512,0l-0.84-.4-0.151.047a0.475,0.475,0,0,0-.316.45v2.177a4.415,4.415,0,0,0,3.128,0V19.537A0.475,0.475,0,0,0,19.775,19.087Zm-1.248-4.3a0.689,0.689,0,1,0,.68.688A0.685,0.685,0,0,0,18.528,14.791ZM12.1,12.13v-1.9a5.572,5.572,0,0,1-1.193,0v1.9L8.435,13.38a5.764,5.764,0,0,1,.777.957L11.5,13.178l2.289,1.158a5.776,5.776,0,0,1,.776-0.957Z"/>
</svg>
