<svg xmlns="http://www.w3.org/2000/svg" xmlns:xlink="http://www.w3.org/1999/xlink" width="17" height="17" viewBox="0 0 17 17">
  <metadata><?xpacket begin="﻿" id="W5M0MpCehiHzreSzNTczkc9d"?>
<x:xmpmeta xmlns:x="adobe:ns:meta/" x:xmptk="Adobe XMP Core 5.6-c138 79.159824, 2016/09/14-01:09:01        ">
   <rdf:RDF xmlns:rdf="http://www.w3.org/1999/02/22-rdf-syntax-ns#">
      <rdf:Description rdf:about=""/>
   </rdf:RDF>
</x:xmpmeta>
                                                                                                    
                                                                                                    
                                                                                                    
                                                                                                    
                                                                                                    
                                                                                                    
                                                                                                    
                                                                                                    
                                                                                                    
                                                                                                    
                                                                                                    
                                                                                                    
                                                                                                    
                                                                                                    
                                                                                                    
                                                                                                    
                                                                                                    
                                                                                                    
                                                                                                    
                                                                                                    
                           
<?xpacket end="w"?></metadata>
<defs>
    <style>
      .cls-1 {
        fill-rule: evenodd;
        filter: url(#filter);
      }
    </style>
    <filter id="filter" x="1527" y="33" width="17" height="17" filterUnits="userSpaceOnUse">
      <feFlood result="flood" flood-color="#c2cdd3"/>
      <feComposite result="composite" operator="in" in2="SourceGraphic"/>
      <feBlend result="blend" in2="SourceGraphic"/>
    </filter>
  </defs>
  <path id="Forma_1" data-name="Forma 1" class="cls-1" d="M1535.47,48.583h-6.35a0.711,0.711,0,0,1-.71-0.708V35.125a0.711,0.711,0,0,1,.71-0.708h6.35a0.708,0.708,0,1,0,0-1.417h-6.35a2.124,2.124,0,0,0-2.12,2.125v12.75A2.124,2.124,0,0,0,1529.12,50h6.35A0.708,0.708,0,1,0,1535.47,48.583ZM1543.79,41l-4.29-4.25a0.707,0.707,0,1,0-.99,1.009l3.06,3.037h-8.22a0.708,0.708,0,0,0,0,1.417h8.22l-3.06,3.037a0.707,0.707,0,1,0,.99,1.009l4.29-4.25A0.71,0.71,0,0,0,1543.79,41Z" transform="translate(-1527 -33)"/>
</svg>
