<svg xmlns="http://www.w3.org/2000/svg" xmlns:xlink="http://www.w3.org/1999/xlink" width="24" height="18" viewBox="0 0 24 18">
  <path class="cls-1" d="M394.566,204.67a5.611,5.611,0,0,0-7.988,0l-0.449.453-0.448-.453a5.611,5.611,0,0,0-7.988,0,5.745,5.745,0,0,0,0,8.063l8.015,8.091a0.592,0.592,0,0,0,.842,0l8.016-8.091A5.74,5.74,0,0,0,394.566,204.67Zm-0.842,7.213-7.595,7.667-7.6-7.667a4.536,4.536,0,0,1,0-6.364,4.429,4.429,0,0,1,6.305,0l0.869,0.878a0.593,0.593,0,0,0,.842,0l0.869-.878a4.429,4.429,0,0,1,6.305,0A4.536,4.536,0,0,1,393.724,211.883Zm-16.947-1.294H374.6a0.6,0.6,0,0,0,0,1.2h2.182A0.6,0.6,0,0,0,376.777,210.589Zm18.644,0.019h-5.695l-0.886-1.967a0.4,0.4,0,0,0-.735.031l-1.811,5.153-2.2-6.156a0.4,0.4,0,0,0-.355-0.264,0.385,0.385,0,0,0-.377.229l-1.48,3.174h-4.9a0.4,0.4,0,0,0-.4.4,0.462,0.462,0,0,0,.48.381h5.157a0.274,0.274,0,0,0,.276-0.211l1.18-2.53,2.253,6.3a0.4,0.4,0,0,0,.373.264h0a0.4,0.4,0,0,0,.373-0.266l1.853-5.272,0.586,1.3a0.514,0.514,0,0,0,.444.216h5.951a0.319,0.319,0,0,0,.313-0.381A0.4,0.4,0,0,0,395.421,210.608Zm1.984-.22H395.62a0.6,0.6,0,0,0,0,1.2h1.785A0.6,0.6,0,0,0,397.405,210.388Z" transform="translate(-374 -203)"/>
</svg>
