<svg xmlns="http://www.w3.org/2000/svg" xmlns:xlink="http://www.w3.org/1999/xlink" width="23.03" height="17.563" viewBox="0 0 23.03 17.563">
  <metadata><?xpacket begin="﻿" id="W5M0MpCehiHzreSzNTczkc9d"?>
<x:xmpmeta xmlns:x="adobe:ns:meta/" x:xmptk="Adobe XMP Core 5.6-c138 79.159824, 2016/09/14-01:09:01        ">
   <rdf:RDF xmlns:rdf="http://www.w3.org/1999/02/22-rdf-syntax-ns#">
      <rdf:Description rdf:about=""/>
   </rdf:RDF>
</x:xmpmeta>
                                                                                                    
                                                                                                    
                                                                                                    
                                                                                                    
                                                                                                    
                                                                                                    
                                                                                                    
                                                                                                    
                                                                                                    
                                                                                                    
                                                                                                    
                                                                                                    
                                                                                                    
                                                                                                    
                                                                                                    
                                                                                                    
                                                                                                    
                                                                                                    
                                                                                                    
                                                                                                    
                           
<?xpacket end="w"?></metadata>
<defs>
    <style>
      .cls-1 {
        fill-rule: evenodd;
        filter: url(#filter);
      }
    </style>
    <filter id="filter" x="1444" y="32.969" width="23.03" height="17.563" filterUnits="userSpaceOnUse">
      <feFlood result="flood" flood-color="#c2cdd3"/>
      <feComposite result="composite" operator="in" in2="SourceGraphic"/>
      <feBlend result="blend" in2="SourceGraphic"/>
    </filter>
  </defs>
  <path id="Forma_1" data-name="Forma 1" class="cls-1" d="M1462.24,47.23a6.557,6.557,0,0,1-1.09-3.62V39.939a5.638,5.638,0,0,0-4.97-5.588V32.963h-1.35v1.394a5.667,5.667,0,0,0-4.93,5.637V43.61a6.486,6.486,0,0,1-1.1,3.62l-1.29,1.936h6.1a2.026,2.026,0,0,0,3.82,0h6.11Zm-12.21.586a7.825,7.825,0,0,0,1.22-4.206V39.993a4.31,4.31,0,0,1,4.26-4.33h0.01a4.28,4.28,0,0,1,4.28,4.276V43.61a7.824,7.824,0,0,0,1.22,4.206h-10.99Zm15.1-10.691-0.95.955a5.2,5.2,0,0,1,.06,7.262l0.96,0.94A6.528,6.528,0,0,0,1465.13,37.125Zm-1.91,1.91-0.95.955a2.444,2.444,0,0,1,.72,1.75,2.478,2.478,0,0,1-.7,1.731l0.96,0.944A3.827,3.827,0,0,0,1463.22,39.034Zm-16.35-.955-0.96-.955a6.528,6.528,0,0,0-.07,9.157l0.97-.94A5.17,5.17,0,0,1,1446.87,38.08Zm1.91,1.91-0.96-.955a3.827,3.827,0,0,0-.03,5.38l0.97-.944A2.464,2.464,0,0,1,1448.78,39.989Z" transform="translate(-1444 -32.969)"/>
</svg>
