<svg xmlns="http://www.w3.org/2000/svg" xmlns:xlink="http://www.w3.org/1999/xlink" width="22" height="22" viewBox="0 0 22 22">
  <metadata><?xpacket begin="﻿" id="W5M0MpCehiHzreSzNTczkc9d"?>
<x:xmpmeta xmlns:x="adobe:ns:meta/" x:xmptk="Adobe XMP Core 5.6-c138 79.159824, 2016/09/14-01:09:01        ">
   <rdf:RDF xmlns:rdf="http://www.w3.org/1999/02/22-rdf-syntax-ns#">
      <rdf:Description rdf:about=""/>
   </rdf:RDF>
</x:xmpmeta>
                                                                                                    
                                                                                                    
                                                                                                    
                                                                                                    
                                                                                                    
                                                                                                    
                                                                                                    
                                                                                                    
                                                                                                    
                                                                                                    
                                                                                                    
                                                                                                    
                                                                                                    
                                                                                                    
                                                                                                    
                                                                                                    
                                                                                                    
                                                                                                    
                                                                                                    
                                                                                                    
                           
<?xpacket end="w"?></metadata>
<defs>
    <style>
      .cls-1 {
        fill-rule: evenodd;
        filter: url(#filter);
      }
    </style>
    <filter id="filter" x="374" y="290" width="22" height="22" filterUnits="userSpaceOnUse">
      <feFlood result="flood" flood-color="#9da9b8"/>
      <feComposite result="composite" operator="in" in2="SourceGraphic"/>
      <feBlend result="blend" in2="SourceGraphic"/>
    </filter>
  </defs>
  <path id="Forma_1" data-name="Forma 1" class="cls-1" d="M384.607,304.379a1.222,1.222,0,0,0-.736.682,1.542,1.542,0,0,0-.187,1.01,1.756,1.756,0,0,0,.234.581,1.485,1.485,0,0,0,1.271.671h0a1.859,1.859,0,0,0,.843-0.208,1.511,1.511,0,0,0,.813-1.017,1.2,1.2,0,0,0-.273-1.026A2.1,2.1,0,0,0,384.607,304.379Zm1.165,1.489a0.51,0.51,0,0,1-.282.3,0.5,0.5,0,0,1-.677-0.144,0.5,0.5,0,0,1,.018-0.488,0.2,0.2,0,0,1,.2-0.087,0.9,0.9,0,0,1,.224.034,1.057,1.057,0,0,1,.407.208A0.254,0.254,0,0,1,385.772,305.868Zm0.824-10.79h0a0.717,0.717,0,0,0-.083-0.016c-0.932-.113-1.877-0.191-2.81-0.233h-0.031a0.836,0.836,0,0,0-.766.663,24.742,24.742,0,0,0,.486,4.572c0.182,1.076.37,2.189,0.446,3.289a0.621,0.621,0,0,0,.288.491,0.6,0.6,0,0,0,.419.159h1.124a0.6,0.6,0,0,0,.586-0.426,0.644,0.644,0,0,0,.082-0.253c0.108-1,.23-2.025.347-3.012,0.178-1.506.364-3.063,0.506-4.6a0.558,0.558,0,0,0-.138-0.444A0.611,0.611,0,0,0,386.6,295.078Zm-1.549,7.668c-0.093-.929-0.25-1.859-0.4-2.76a28.459,28.459,0,0,1-.473-3.875c0.565,0.033,1.136.08,1.7,0.139-0.134,1.348-.3,2.712-0.452,4.034-0.1.82-.194,1.641-0.285,2.462h-0.09Zm8.894-3.449c0.134-.19.292-0.439,0.485-0.765a15.26,15.26,0,0,0,.744-1.389,0.484,0.484,0,0,0-.293-0.626c-0.092-.032-0.191-0.068-0.3-0.106a8.3,8.3,0,0,0-1.882-.517,6.569,6.569,0,0,0,.226-2.337,0.483,0.483,0,0,0-.546-0.433,19.971,19.971,0,0,0-2.357.427c-0.021-.131-0.041-0.265-0.061-0.4a8.56,8.56,0,0,0-.447-1.948,0.485,0.485,0,0,0-.524-0.3,4.257,4.257,0,0,0-1.965,1.109c-0.081.068-.161,0.134-0.239,0.2-0.315-.5-0.652-0.994-0.981-1.473l-0.356-.523a0.486,0.486,0,0,0-.8,0c-0.167.245-.321,0.506-0.471,0.757a8.475,8.475,0,0,1-.758,1.137c-0.062.074-.1,0.121-0.134,0.151-0.082-.038-0.206-0.108-0.268-0.143A15.257,15.257,0,0,1,381.3,290.9a0.486,0.486,0,0,0-.68.083,0.476,0.476,0,0,0-.1.368c-0.018.143-.1,0.517-0.245,1.113-0.026.106-.044,0.18-0.048,0.2-0.026.136-.045,0.266-0.062,0.388a1.732,1.732,0,0,1-.1.456,0.4,0.4,0,0,1-.166.022c-0.039,0-.082,0-0.128-0.006a9.577,9.577,0,0,1-1.369-.268c-0.247-.061-0.493-0.121-0.734-0.171a0.483,0.483,0,0,0-.573.57c0.012,0.059.036,0.221,0.069,0.438,0.13,0.859.229,1.448,0.318,1.854a11.8,11.8,0,0,0-2.255.59,0.485,0.485,0,0,0-.184.78,22.667,22.667,0,0,1,1.317,1.886,10.019,10.019,0,0,1-1.784,1.308,0.487,0.487,0,0,0-.483.182,0.481,0.481,0,0,0,.093.677,6.2,6.2,0,0,0,.816.463,5.422,5.422,0,0,1,1.333.839,10.172,10.172,0,0,1-1.234,1.9,0.483,0.483,0,0,0,.059.915h0a6.68,6.68,0,0,0,.932.125,6.676,6.676,0,0,1,1.522.252,10.17,10.17,0,0,1-.4,2.229,0.477,0.477,0,0,0-.127.413,0.484,0.484,0,0,0,.559.4h0a5.816,5.816,0,0,0,.908-0.27,4.267,4.267,0,0,1,1.24-.315,0.628,0.628,0,0,1,.288.056,3.892,3.892,0,0,1,.363,1.656,7,7,0,0,0,.089.747,0.485,0.485,0,0,0,.475.387c0.172,0,.172,0,1.068-0.7l0.384-.3a1.184,1.184,0,0,1,.9-0.388,9.491,9.491,0,0,1,1.2,1.708,0.484,0.484,0,0,0,.231.439,0.491,0.491,0,0,0,.254.071,0.486,0.486,0,0,0,.414-0.231h0c0.114-.186.223-0.416,0.339-0.659,0.28-.59.661-1.393,1.124-1.428a7.146,7.146,0,0,1,1.689,1.008,0.486,0.486,0,0,0,.93.081,13.219,13.219,0,0,0,.336-1.522c0.068-.34.12-0.6,0.158-0.8l0.29,0.078a7.737,7.737,0,0,0,1.916.353h0a2.548,2.548,0,0,0,.28-0.014,0.483,0.483,0,0,0,.435-0.512c-0.009-.134-0.086-0.52-0.314-1.612-0.056-.269-0.12-0.575-0.168-0.813q0.222-.063.438-0.129a7.147,7.147,0,0,1,1.815-.382,0.483,0.483,0,0,0,.428-0.683,11.135,11.135,0,0,0-1.264-1.965c0.186-.118.426-0.279,0.74-0.5a4.456,4.456,0,0,0,1.3-1.061,0.481,0.481,0,0,0-.085-0.589A9.787,9.787,0,0,0,393.941,299.3Zm-0.863,2.833a0.5,0.5,0,0,0-.2.091,0.482,0.482,0,0,0-.092.677h0l0.1,0.127c0.363,0.475.761,0.994,1.075,1.5a11.98,11.98,0,0,0-1.314.34c-0.285.086-.555,0.166-0.828,0.233-0.462.112-.379,0.52-0.293,0.953,0.047,0.235.113,0.551,0.181,0.878,0.06,0.288.137,0.654,0.2,0.951a9.821,9.821,0,0,1-1.309-.3c-0.3-.08-0.574-0.156-0.839-0.211l-0.1.491-0.479-.058c-0.017.137-.2,1.09-0.348,1.81a5.4,5.4,0,0,0-1.865-.91c-0.969,0-1.506.914-1.893,1.7a6.75,6.75,0,0,0-1.181-1.46,1.242,1.242,0,0,0-.624-0.167,2.393,2.393,0,0,0-1.368.605l-0.4.312-0.084.066c-0.084-.924-0.209-1.916-0.87-2.253a1.6,1.6,0,0,0-.731-0.163,4.644,4.644,0,0,0-1.476.339,4.332,4.332,0,0,0,.123-2.372c-0.338-.446-1.119-0.559-2.187-0.66a5.041,5.041,0,0,0,1.061-2.1c-0.1-.655-0.915-1.1-1.737-1.522a14.8,14.8,0,0,0,1.7-1.382c0.317-.335.112-0.7-0.605-1.745-0.147-.215-0.323-0.463-0.483-0.684a7.193,7.193,0,0,1,1.7-.347,0.655,0.655,0,0,1,.15.012,0.484,0.484,0,0,0,.589-0.351,0.479,0.479,0,0,0-.111-0.441,17.363,17.363,0,0,1-.364-1.914l0.009,0a10.313,10.313,0,0,0,1.515.292c0.077,0.007.149,0.01,0.215,0.01a1.2,1.2,0,0,0,1.224-1.308c0.016-.108.032-0.223,0.054-0.338,0-.022.019-0.08,0.038-0.159,0.05-.2.093-0.379,0.13-0.535a11.3,11.3,0,0,0,1.182.794,1.628,1.628,0,0,0,.788.293,1.117,1.117,0,0,0,.836-0.517,9.3,9.3,0,0,0,.851-1.268c0.019-.031.038-0.062,0.056-0.093,0.4,0.584.81,1.187,1.167,1.792a0.484,0.484,0,0,0,.689.156c0.248-.166.49-0.368,0.726-0.563a5.332,5.332,0,0,1,1.106-.778,10.808,10.808,0,0,1,.248,1.313c0.047,0.319.1,0.649,0.163,0.971a0.486,0.486,0,0,0,.621.362,15.011,15.011,0,0,1,2.195-.468,4.019,4.019,0,0,1-.447,1.985,0.483,0.483,0,0,0,.529.739,1.192,1.192,0,0,1,.311-0.036,5.484,5.484,0,0,1,1.667.4,13.544,13.544,0,0,1-1.045,1.7,0.482,0.482,0,0,0-.091.872c0.152,0.091.308,0.181,0.467,0.272a13.14,13.14,0,0,1,1.4.887A18.267,18.267,0,0,1,393.078,302.13Z" transform="translate(-374 -290)"/>
</svg>
