<svg height="426pt" viewBox="-5 0 426 426.38653" width="426pt" xmlns="http://www.w3.org/2000/svg"><path class="cls-1" d="m231.429688 110.15625-9.863282-19.625c11.230469 1.234375 22.230469 4.0625 32.664063 8.398438l-5.496094 27.449218-18.398437 24.503906-11.832032-7.894531 12.847656-25.683593c1.148438-2.238282 1.179688-4.886719.078126-7.148438zm-85.816407 56 16 24c1.472657 2.21875 3.953125 3.558594 6.617188 3.574219h21.753906l-4 16h-33.753906c-2.570313.003906-4.984375 1.238281-6.484375 3.324219-1.503906 2.085937-1.910156 4.765624-1.097656 7.203124l4.476562 13.472657h-16.894531l-20-26.664063v-29.335937c0-2.121094-.84375-4.15625-2.34375-5.65625l-11.199219-11.199219c5.109375-11.394531 11.964844-21.921875 20.320312-31.199219h48.542969l-21.601562 27c-2.195313 2.738281-2.347657 6.589844-.375 9.496094zm46.617188 162.382812v-22.808593c0-2.121094-.84375-4.15625-2.34375-5.65625l-10.34375-10.34375 16-16h14.917969l6.1875 18.527343c.664062 2.015626 2.101562 3.679688 4 4.632813l6.070312 3.03125-16.152344 16.152344c-1.496094 1.5-2.335937 3.535156-2.335937 5.65625v8c-5.355469-.039063-10.699219-.4375-16-1.191407zm32 0v-3.496093l21.65625-21.65625c1.8125-1.820313 2.644531-4.398438 2.230469-6.933594-.410157-2.53125-2.015626-4.714844-4.3125-5.867187l-13.039063-6.511719-6.949219-20.855469c-1.085937-3.273438-4.140625-5.484375-7.585937-5.488281h-24c-2.121094 0-4.15625.84375-5.65625 2.34375l-24 24c-3.121094 3.125-3.121094 8.1875 0 11.3125l13.65625 13.65625v16.222656c-30.746094-8.378906-56.867188-28.703125-72.546875-56.445313-15.679688-27.742187-19.621094-60.601562-10.941406-91.265624l3.488281 3.488281v28.6875c0 1.730469.5625 3.414062 1.601562 4.800781l24 32c1.507813 2.015625 3.878907 3.199219 6.398438 3.199219h32c2.570312 0 4.984375-1.238281 6.484375-3.324219 1.503906-2.085938 1.910156-4.765625 1.101562-7.203125l-4.480468-13.472656h28.894531c3.671875 0 6.871093-2.5 7.761719-6.0625l8-32c.59375-2.390625.058593-4.921875-1.457032-6.863281-1.515625-1.9375-3.84375-3.074219-6.304687-3.074219h-27.71875l-10.402344-15.566407 28.351563-35.433593c1.921874-2.398438 2.300781-5.6875.96875-8.457031-1.328126-2.773438-4.125-4.539063-7.199219-4.542969h-47.695313c19.367188-14.527344 42.703125-22.8125 66.894532-23.75l11.855468 23.75-14.214844 28.425781c-1.800781 3.605469-.636718 7.992188 2.71875 10.230469l24 16c3.535157 2.355469 8.292969 1.542969 10.839844-1.855469l24-32c.714844-.945312 1.207032-2.039062 1.441406-3.199219l4.96875-24.839843c6.875 4.054687 13.332032 8.785156 19.269532 14.117187l-7.199219 43.359375-35.816406 14.328125c-3.71875 1.484375-5.765625 5.484375-4.796875 9.371094l7.140625 28.566406-14.039063 21.054687c-2.113281 3.175782-1.695312 7.402344 1 10.097657l16 16c1.496094 1.496093 3.519532 2.335937 5.632813 2.34375h26.585937l11.125 27.824219c-18.675781 19.121093-43.21875 31.4375-69.710937 34.984374zm81.367187-48.9375-9.933594-24.839843c-1.214843-3.039063-4.160156-5.03125-7.433593-5.03125h-28.6875l-9.015625-9.015625 12.359375-18.542969c1.257812-1.882813 1.65625-4.207031 1.105469-6.402344l-6.304688-25.238281 33.511719-13.402344c2.597656-1.039062 4.460937-3.359375 4.917969-6.117187l5.976562-35.855469c33.5 41.875 34.933594 100.960938 3.503906 144.414062zm0 0"/><path d="m128.167969 17.730469 6.160156 14.761719c4.710937-1.96875 9.597656-3.785157 14.496094-5.394532l-4.992188-15.199218c-5.304687 1.769531-10.578125 3.726562-15.664062 5.832031zm0 0"/><path d="m94.09375 55.332031c4.128906-3.058593 8.441406-5.976562 12.800781-8.707031l-8.472656-13.597656c-4.71875 2.933594-9.367187 6.09375-13.839844 9.390625zm0 0"/><path d="m412.359375 169.402344c-1.074219-5.472656-2.402344-10.945313-3.914063-16.28125l-15.382812 4.378906c1.398438 4.917969 2.609375 9.957031 3.609375 15zm0 0"/><path d="m375.183594 114.835938c2.511718 4.429687 4.910156 9.054687 7.109375 13.742187l14.480469-6.800781c-2.398438-5.0625-4.96875-10.0625-7.6875-14.847656zm0 0"/><path d="m334.375 44.265625c-4.402344-3.367187-9.015625-6.605469-13.726562-9.597656l-8.640626 13.460937c4.34375 2.785156 8.589844 5.769532 12.65625 8.875zm0 0"/><path d="m19.925781 247.332031-15.695312 3.140625c1.097656 5.464844 2.398437 10.9375 3.945312 16.265625l15.390625-4.398437c-1.398437-4.914063-2.625-9.96875-3.640625-15.007813zm0 0"/><path d="m347.613281 77.640625c3.546875 3.746094 6.960938 7.664063 10.167969 11.648437l12.464844-10.015624c-3.464844-4.320313-7.199219-8.566407-11-12.621094zm0 0"/><path d="m345.992188 343.523438 11.453124 11.199218c3.875-4 7.640626-8.167968 11.203126-12.472656l-12.320313-10.207031c-3.296875 3.953125-6.769531 7.824219-10.335937 11.480469zm0 0"/><path d="m309.949219 372.585938 8.488281 13.601562c4.714844-2.953125 9.359375-6.121094 13.816406-9.425781l-9.519531-12.855469c-4.105469 3.015625-8.433594 5.953125-12.785156 8.679688zm0 0"/><path d="m374.023438 306.714844 13.808593 8.078125c2.816407-4.796875 5.453125-9.78125 7.863281-14.78125l-14.402343-6.9375c-2.238281 4.609375-4.679688 9.199219-7.269531 13.640625zm0 0"/><path d="m392.367188 264.257812 15.34375 4.527344c1.527343-5.191406 2.871093-10.511718 4-15.804687l.085937-.402344-15.734375-2.925781c-1.039062 4.878906-2.289062 9.8125-3.695312 14.605468zm0 0"/><path d="m400.070312 218.640625 16 .746094c.265626-5.601563.304688-11.199219.121094-16.734375l-16 .527344c.167969 5.085937.128906 10.292968-.121094 15.460937zm0 0"/><path d="m19.925781 298.027344c2.359375 5.039062 4.960938 10.039062 7.722657 14.863281l13.886718-7.945313c-2.542968-4.445312-4.945312-9.0625-7.128906-13.71875zm0 0"/><path d="m268.0625 392.203125 5.007812 15.199219c5.289063-1.742188 10.558594-3.71875 15.664063-5.863282l-6.191406-14.753906c-4.710938 1.992188-9.59375 3.816406-14.480469 5.417969zm0 0"/><path d="m20.285156 170.59375.167969-.800781c1.066406-5.007813 2.351563-10.054688 3.816406-14.992188l-15.34375-4.550781c-1.597656 5.34375-2.96875 10.800781-4.121093 16.214844l-.167969.800781zm0 0"/><path d="m16.40625 201.210938-16-.726563c-.253906 5.597656-.28125 11.199219-.078125 16.75l16-.574219c-.175781-5.121094-.144531-10.320312.078125-15.449218zm0 0"/><path d="m46.511719 340.523438c3.519531 4.34375 7.199219 8.582031 11.046875 12.589843l11.59375-11.015625c-3.515625-3.703125-6.945313-7.613281-10.203125-11.632812zm0 0"/><path d="m21.03125 119.066406 14.398438 6.976563c2.234374-4.625 4.6875-9.214844 7.289062-13.648438l-13.832031-8.089843c-2.808594 4.792968-5.457031 9.761718-7.855469 14.761718zm0 0"/><path d="m48.132812 76.929688 12.3125 10.226562c3.289063-4 6.769532-7.824219 10.335938-11.472656l-11.421875-11.199219c-3.882813 3.933594-7.65625 8.117187-11.226563 12.445313zm0 0"/><path d="m293.261719 14.25-17.472657 3.855469-69.488281-17.496094c-5.238281-1.320313-10.792969-.476563-15.40625 2.335937-1.988281 1.273438-3.03125 3.609376-2.652343 5.941407.382812 2.332031 2.113281 4.214843 4.40625 4.789062l23.382812 5.878907 17 37.289062 15.519531 3.902344-10.800781-35.71875 35.535156 8.941406c4.078125 1.03125 8.394532.398438 12-1.757812l13.792969-8.25 1.960937-7.757813zm0 0"/><path d="m116.765625 363.53125 14.535156 10.398438 70.761719 11.34375c5.332031.855468 10.097656 3.820312 13.222656 8.226562 1.332032 1.953125 1.367188 4.507812.097656 6.5-1.269531 1.996094-3.605468 3.039062-5.9375 2.660156l-23.796874-3.816406-30.347657 27.542969-15.796875-2.527344 24-28.5625-36.183594-5.796875c-4.144531-.664062-7.855468-2.945312-10.3125-6.34375l-9.425781-13.027344 1.265625-7.902344zm0 0"/></svg>