<svg xmlns="http://www.w3.org/2000/svg" xmlns:xlink="http://www.w3.org/1999/xlink" width="15" height="16" viewBox="0 0 15 16">
  <metadata><?xpacket begin="﻿" id="W5M0MpCehiHzreSzNTczkc9d"?>
<x:xmpmeta xmlns:x="adobe:ns:meta/" x:xmptk="Adobe XMP Core 5.6-c138 79.159824, 2016/09/14-01:09:01        ">
   <rdf:RDF xmlns:rdf="http://www.w3.org/1999/02/22-rdf-syntax-ns#">
      <rdf:Description rdf:about=""/>
   </rdf:RDF>
</x:xmpmeta>
                                                                                                    
                                                                                                    
                                                                                                    
                                                                                                    
                                                                                                    
                                                                                                    
                                                                                                    
                                                                                                    
                                                                                                    
                                                                                                    
                                                                                                    
                                                                                                    
                                                                                                    
                                                                                                    
                                                                                                    
                                                                                                    
                                                                                                    
                                                                                                    
                                                                                                    
                                                                                                    
                           
<?xpacket end="w"?></metadata>
<defs>
    <style>
      .cls-1 {
        fill-rule: evenodd;
        filter: url(#filter);
      }
    </style>
    <filter id="filter" x="0" y="0" width="15" height="16" filterUnits="userSpaceOnUse">
      <feFlood result="flood" flood-color="#ced1db"/>
      <feComposite result="composite" operator="in" in2="SourceGraphic"/>
      <feBlend result="blend" in2="SourceGraphic"/>
    </filter>
  </defs>
  <path id="Forma_1" data-name="Forma 1" class="cls-1" d="M14.766,14.573l-3.7-3.96A6.557,6.557,0,0,0,12.54,6.46,6.375,6.375,0,0,0,6.269,0,6.375,6.375,0,0,0,0,6.46a6.375,6.375,0,0,0,6.271,6.46,6.08,6.08,0,0,0,3.593-1.169l3.725,3.991a0.8,0.8,0,0,0,1.156.023A0.862,0.862,0,0,0,14.766,14.573ZM6.269,1.685A4.712,4.712,0,0,1,10.9,6.46a4.712,4.712,0,0,1-4.635,4.775A4.712,4.712,0,0,1,1.634,6.46,4.712,4.712,0,0,1,6.269,1.685Z"/>
</svg>
