<svg xmlns="http://www.w3.org/2000/svg" xmlns:xlink="http://www.w3.org/1999/xlink" width="22" height="22" viewBox="0 0 22 22">
  <metadata><?xpacket begin="﻿" id="W5M0MpCehiHzreSzNTczkc9d"?>
<x:xmpmeta xmlns:x="adobe:ns:meta/" x:xmptk="Adobe XMP Core 5.6-c138 79.159824, 2016/09/14-01:09:01        ">
   <rdf:RDF xmlns:rdf="http://www.w3.org/1999/02/22-rdf-syntax-ns#">
      <rdf:Description rdf:about=""/>
   </rdf:RDF>
</x:xmpmeta>
                                                                                                    
                                                                                                    
                                                                                                    
                                                                                                    
                                                                                                    
                                                                                                    
                                                                                                    
                                                                                                    
                                                                                                    
                                                                                                    
                                                                                                    
                                                                                                    
                                                                                                    
                                                                                                    
                                                                                                    
                                                                                                    
                                                                                                    
                                                                                                    
                                                                                                    
                                                                                                    
                           
<?xpacket end="w"?></metadata>
<defs>
    <style>
      .cls-1 {
        fill-rule: evenodd;
        filter: url(#filter);
      }
    </style>
    <filter id="filter" x="0" y="0" width="22" height="22" filterUnits="userSpaceOnUse">
      <feFlood result="flood" flood-color="#9da9b8"/>
      <feComposite result="composite" operator="in" in2="SourceGraphic"/>
      <feBlend result="blend" in2="SourceGraphic"/>
    </filter>
  </defs>
  <path id="Forma_1" data-name="Forma 1" class="cls-1" d="M20.614,14.864a3.22,3.22,0,0,0-1.76-3.724l-2.338-1.09A1.932,1.932,0,0,0,16.1,9.912a1.93,1.93,0,0,0,.7-1.49V5.844a3.228,3.228,0,0,0-2.634-3.168,3.217,3.217,0,0,0-6.342,0A3.228,3.228,0,0,0,5.2,5.844V8.422a1.93,1.93,0,0,0,.7,1.49,1.933,1.933,0,0,0-.415.138L3.146,11.14a3.22,3.22,0,0,0-1.76,3.724A3.224,3.224,0,0,0,.3,18.849a3.3,3.3,0,0,0,3.769,1.8A3.231,3.231,0,0,0,8.052,21.7l2.338-1.09A1.878,1.878,0,0,0,11,20.153a1.878,1.878,0,0,0,.61.455l2.338,1.09a3.231,3.231,0,0,0,3.988-1.049,3.3,3.3,0,0,0,3.769-1.8A3.224,3.224,0,0,0,20.614,14.864Zm-4.643-3.645,2.338,1.09a1.937,1.937,0,0,1,1.1,2.026,3.223,3.223,0,0,0-3.589,1.788l1.089-2.333a0.645,0.645,0,0,0-.312-0.857l-1.169-.545A0.645,0.645,0,1,1,15.971,11.219ZM11,1.289a1.982,1.982,0,0,1,1.935,1.977,1.935,1.935,0,0,1-3.87,0A1.982,1.982,0,0,1,11,1.289ZM6.485,5.844a1.937,1.937,0,0,1,1.374-1.85,3.224,3.224,0,0,0,6.282,0,1.937,1.937,0,0,1,1.374,1.85V8.422a0.645,0.645,0,0,1-1.29,0V7.133a0.645,0.645,0,0,0-.645-0.645H8.42a0.645,0.645,0,0,0-.645.645V8.422a0.645,0.645,0,0,1-1.29,0V5.844h0ZM3.691,12.308l2.338-1.09a0.645,0.645,0,1,1,.545,1.168l-1.169.545a0.644,0.644,0,0,0-.312.857l1.089,2.335a3.223,3.223,0,0,0-3.589-1.789A1.936,1.936,0,0,1,3.691,12.308Zm0.388,6.974A2,2,0,0,1,1.465,18.3a1.954,1.954,0,0,1,3.55-1.634A1.988,1.988,0,0,1,4.079,19.283ZM9.845,19.44L7.507,20.53a1.939,1.939,0,0,1-2.259-.463,3.282,3.282,0,0,0,.937-3.94l1.089,2.335a0.645,0.645,0,0,0,.857.312L9.3,18.229a0.645,0.645,0,0,1,.857.312A0.691,0.691,0,0,1,9.845,19.44ZM11,17.506a1.936,1.936,0,0,0-2.245-.446l-0.584.272-1.635-3.5,0.585-.272a1.932,1.932,0,0,0,.415-3.243A1.937,1.937,0,0,0,9.065,8.422V7.777h3.87V8.422a1.937,1.937,0,0,0,1.531,1.891,1.932,1.932,0,0,0,.415,3.243l0.585,0.272-1.635,3.5-0.585-.272A1.936,1.936,0,0,0,11,17.506Zm3.493,3.023-2.338-1.09a0.691,0.691,0,0,1-.312-0.9,0.646,0.646,0,0,1,.857-0.312l1.169,0.545a0.645,0.645,0,0,0,.857-0.312l1.089-2.334a3.282,3.282,0,0,0,.937,3.939A1.939,1.939,0,0,1,14.493,20.53ZM20.535,18.3a1.954,1.954,0,1,1-3.55-1.634A1.954,1.954,0,0,1,20.535,18.3Z"/>
</svg>
