<svg xmlns="http://www.w3.org/2000/svg" xmlns:xlink="http://www.w3.org/1999/xlink" width="17" height="14" viewBox="0 0 17 14">
  <metadata><?xpacket begin="﻿" id="W5M0MpCehiHzreSzNTczkc9d"?>
<x:xmpmeta xmlns:x="adobe:ns:meta/" x:xmptk="Adobe XMP Core 5.6-c138 79.159824, 2016/09/14-01:09:01        ">
   <rdf:RDF xmlns:rdf="http://www.w3.org/1999/02/22-rdf-syntax-ns#">
      <rdf:Description rdf:about=""/>
   </rdf:RDF>
</x:xmpmeta>
                                                                                                    
                                                                                                    
                                                                                                    
                                                                                                    
                                                                                                    
                                                                                                    
                                                                                                    
                                                                                                    
                                                                                                    
                                                                                                    
                                                                                                    
                                                                                                    
                                                                                                    
                                                                                                    
                                                                                                    
                                                                                                    
                                                                                                    
                                                                                                    
                                                                                                    
                                                                                                    
                           
<?xpacket end="w"?></metadata>
<defs>
    <style>
      .cls-1 {
        fill-rule: evenodd;
        filter: url(#filter);
      }
    </style>
    <filter id="filter" x="0" y="-0.125" width="17" height="14.25" filterUnits="userSpaceOnUse">
      <feFlood result="flood" flood-color="#c7d5df"/>
      <feComposite result="composite" operator="in" in2="SourceGraphic"/>
      <feBlend result="blend" in2="SourceGraphic"/>
    </filter>
  </defs>
  <path id="Forma_1" data-name="Forma 1" class="cls-1" d="M10.259,2.324A3.075,3.075,0,0,1,11.7,4.608,2.479,2.479,0,1,0,10.259,2.324ZM8.625,7.405A2.482,2.482,0,1,0,6.132,4.924,2.488,2.488,0,0,0,8.625,7.405ZM9.683,7.574H7.567a3.189,3.189,0,0,0-3.192,3.178v2.575l0.006,0.04L4.56,13.423a14.6,14.6,0,0,0,4.341.7,8.945,8.945,0,0,0,3.79-.708l0.167-.084h0.018V10.752A3.188,3.188,0,0,0,9.683,7.574Zm4.125-2.562h-2.1a3.053,3.053,0,0,1-.948,2.13,3.778,3.778,0,0,1,2.709,3.613v0.793a8.622,8.622,0,0,0,3.346-.7l0.167-.084H17V8.19A3.189,3.189,0,0,0,13.808,5.012ZM4.25,4.843A2.484,2.484,0,0,0,5.576,4.46,3.069,3.069,0,0,1,6.736,2.5c0-.046.007-0.093,0.007-0.139A2.493,2.493,0,1,0,4.25,4.843Zm2.239,2.3a3.053,3.053,0,0,1-.948-2.118C5.464,5.018,5.387,5.012,5.308,5.012H3.192A3.189,3.189,0,0,0,0,8.19v2.576l0.007,0.04,0.178,0.056a15.017,15.017,0,0,0,3.6.672V10.756A3.779,3.779,0,0,1,6.49,7.142Z"/>
</svg>
