<svg xmlns="http://www.w3.org/2000/svg" xmlns:xlink="http://www.w3.org/1999/xlink" width="17" height="20" viewBox="0 0 17 20">
  <metadata><?xpacket begin="﻿" id="W5M0MpCehiHzreSzNTczkc9d"?>
<x:xmpmeta xmlns:x="adobe:ns:meta/" x:xmptk="Adobe XMP Core 5.6-c138 79.159824, 2016/09/14-01:09:01        ">
   <rdf:RDF xmlns:rdf="http://www.w3.org/1999/02/22-rdf-syntax-ns#">
      <rdf:Description rdf:about=""/>
   </rdf:RDF>
</x:xmpmeta>
                                                                                                    
                                                                                                    
                                                                                                    
                                                                                                    
                                                                                                    
                                                                                                    
                                                                                                    
                                                                                                    
                                                                                                    
                                                                                                    
                                                                                                    
                                                                                                    
                                                                                                    
                                                                                                    
                                                                                                    
                                                                                                    
                                                                                                    
                                                                                                    
                                                                                                    
                                                                                                    
                           
<?xpacket end="w"?></metadata>
<defs>
    <style>
      .cls-1 {
        fill-rule: evenodd;
        filter: url(#filter);
      }
    </style>
    <filter id="filter" x="1367" y="31.5" width="17" height="20" filterUnits="userSpaceOnUse">
      <feFlood result="flood" flood-color="#afc0c9"/>
      <feComposite result="composite" operator="in" in2="SourceGraphic"/>
      <feBlend result="blend" in2="SourceGraphic"/>
    </filter>
  </defs>
  <path class="cls-1" d="M1375.43,42.276h0.13a3.837,3.837,0,0,0,2.92-1.262c1.59-1.8,1.33-4.876,1.3-5.169a4.239,4.239,0,0,0-2.01-3.754,4.6,4.6,0,0,0-2.23-.584h-0.07a4.574,4.574,0,0,0-2.22.567,4.24,4.24,0,0,0-2.04,3.771c-0.02.294-.29,3.373,1.3,5.169A3.806,3.806,0,0,0,1375.43,42.276Zm-3.11-6.329V35.914c0.14-2.968,2.25-3.286,3.15-3.286h0.05c1.12,0.025,3.02.48,3.14,3.286a0.039,0.039,0,0,0,.01.033c0,0.029.29,2.843-1.02,4.325a2.736,2.736,0,0,1-2.14.886h-0.04a2.679,2.679,0,0,1-2.12-.886C1372.03,38.8,1372.32,35.972,1372.32,35.948ZM1384,47.384V47.371c0-.033-0.01-0.066-0.01-0.1-0.02-.82-0.07-2.736-1.87-3.348-0.01,0-.03-0.008-0.04-0.012a12.006,12.006,0,0,1-3.44-1.565,0.561,0.561,0,0,0-.78.137,0.568,0.568,0,0,0,.14.778,12.917,12.917,0,0,0,3.78,1.726c0.96,0.343,1.07,1.374,1.1,2.318a0.35,0.35,0,0,0,.01.1,8.737,8.737,0,0,1-.09,1.279,16.532,16.532,0,0,1-14.6,0,7.544,7.544,0,0,1-.09-1.279c0-.033.01-0.066,0.01-0.1,0.03-.944.14-1.974,1.1-2.318a13.04,13.04,0,0,0,3.78-1.726,0.557,0.557,0,0,0,.13-0.778,0.548,0.548,0,0,0-.77-0.137,11.846,11.846,0,0,1-3.44,1.565,0.192,0.192,0,0,0-.04.012c-1.8.617-1.85,2.533-1.87,3.348a0.351,0.351,0,0,1-.01.1v0.012a6.46,6.46,0,0,0,.21,1.875,0.53,0.53,0,0,0,.22.261,17.469,17.469,0,0,0,16.15,0,0.53,0.53,0,0,0,.22-0.261A6.71,6.71,0,0,0,1384,47.384Z" transform="translate(-1367 -31.5)"/>
</svg>
