<svg xmlns="http://www.w3.org/2000/svg" xmlns:xlink="http://www.w3.org/1999/xlink" width="17" height="20" viewBox="0 0 17 20">
  <metadata><?xpacket begin="﻿" id="W5M0MpCehiHzreSzNTczkc9d"?>
<x:xmpmeta xmlns:x="adobe:ns:meta/" x:xmptk="Adobe XMP Core 5.6-c138 79.159824, 2016/09/14-01:09:01        ">
   <rdf:RDF xmlns:rdf="http://www.w3.org/1999/02/22-rdf-syntax-ns#">
      <rdf:Description rdf:about=""/>
   </rdf:RDF>
</x:xmpmeta>
                                                                                                    
                                                                                                    
                                                                                                    
                                                                                                    
                                                                                                    
                                                                                                    
                                                                                                    
                                                                                                    
                                                                                                    
                                                                                                    
                                                                                                    
                                                                                                    
                                                                                                    
                                                                                                    
                                                                                                    
                                                                                                    
                                                                                                    
                                                                                                    
                                                                                                    
                                                                                                    
                           
<?xpacket end="w"?></metadata>
<defs>
    <style>
      .cls-1 {
        fill-rule: evenodd;
        filter: url(#filter);
      }
    </style>
    <filter id="filter" x="0" y="-0.5" width="17" height="20" filterUnits="userSpaceOnUse">
      <feFlood result="flood" flood-color="#afc0c9"/>
      <feComposite result="composite" operator="in" in2="SourceGraphic"/>
      <feBlend result="blend" in2="SourceGraphic"/>
    </filter>
  </defs>
  <path class="cls-1" d="M8.427,10.276H8.56a3.819,3.819,0,0,0,2.918-1.262c1.593-1.8,1.329-4.876,1.3-5.169A4.223,4.223,0,0,0,10.77.09,4.6,4.6,0,0,0,8.543-.494H8.473A4.608,4.608,0,0,0,6.246.073,4.225,4.225,0,0,0,4.214,3.844c-0.029.294-.294,3.373,1.3,5.169A3.8,3.8,0,0,0,8.427,10.276ZM5.319,3.947c0-.012,0-0.025,0-0.033C5.46,0.947,7.566.628,8.469,0.628h0.05c1.117,0.025,3.017.48,3.145,3.286a0.081,0.081,0,0,0,0,.033c0,0.029.294,2.844-1.022,4.325a2.712,2.712,0,0,1-2.131.886H8.473a2.7,2.7,0,0,1-2.127-.886C5.034,6.8,5.315,3.972,5.319,3.947ZM17,15.384V15.371c0-.033,0-0.066,0-0.1-0.025-.819-0.079-2.736-1.875-3.348l-0.042-.012a11.938,11.938,0,0,1-3.435-1.565,0.559,0.559,0,0,0-.642.915,12.891,12.891,0,0,0,3.779,1.726c0.964,0.343,1.072,1.374,1.1,2.318a0.839,0.839,0,0,0,0,.1,7.518,7.518,0,0,1-.087,1.279,15.23,15.23,0,0,1-7.3,1.7,15.317,15.317,0,0,1-7.3-1.7A7.111,7.111,0,0,1,1.114,15.4c0-.033,0-0.066,0-0.1,0.029-.944.137-1.974,1.1-2.318A13.011,13.011,0,0,0,6,11.253a0.559,0.559,0,0,0-.642-0.915A11.805,11.805,0,0,1,1.921,11.9l-0.041.012c-1.8.617-1.85,2.533-1.875,3.348a0.837,0.837,0,0,1,0,.1v0.012a6.35,6.35,0,0,0,.211,1.875,0.532,0.532,0,0,0,.215.261,15.654,15.654,0,0,0,8.079,1.978,15.7,15.7,0,0,0,8.079-1.978,0.554,0.554,0,0,0,.215-0.261A6.658,6.658,0,0,0,17,15.384Z"/>
</svg>
