<svg xmlns="http://www.w3.org/2000/svg" xmlns:xlink="http://www.w3.org/1999/xlink" width="24" height="23" viewBox="0 0 24 23">
  <metadata><?xpacket begin="﻿" id="W5M0MpCehiHzreSzNTczkc9d"?>
<x:xmpmeta xmlns:x="adobe:ns:meta/" x:xmptk="Adobe XMP Core 5.6-c138 79.159824, 2016/09/14-01:09:01        ">
   <rdf:RDF xmlns:rdf="http://www.w3.org/1999/02/22-rdf-syntax-ns#">
      <rdf:Description rdf:about=""/>
   </rdf:RDF>
</x:xmpmeta>
                                                                                                    
                                                                                                    
                                                                                                    
                                                                                                    
                                                                                                    
                                                                                                    
                                                                                                    
                                                                                                    
                                                                                                    
                                                                                                    
                                                                                                    
                                                                                                    
                                                                                                    
                                                                                                    
                                                                                                    
                                                                                                    
                                                                                                    
                                                                                                    
                                                                                                    
                                                                                                    
                           
<?xpacket end="w"?></metadata>
<defs>
    <style>
      .cls-1 {
        fill-rule: evenodd;
        filter: url(#filter);
      }
    </style>
    <filter id="filter" x="374" y="154" width="24" height="23" filterUnits="userSpaceOnUse">
      <feFlood result="flood" flood-color="#9da9b8"/>
      <feComposite result="composite" operator="in" in2="SourceGraphic"/>
      <feBlend result="blend" in2="SourceGraphic"/>
    </filter>
  </defs>
  <path id="Forma_1" data-name="Forma 1" class="cls-1" d="M395.5,174.766c-1.426-.53-2.862-1.043-4.275-1.608a2.306,2.306,0,0,0-2.123.159c-0.836.472-1.695,0.9-2.52,1.393a1.739,1.739,0,0,1-1.917-.008q-1.71-.977-3.427-1.939l-0.7-.391-0.424-.235c-0.06-.033-0.114-0.068-0.167-0.1q-1.666-.931-3.331-1.868a3.955,3.955,0,0,0-.479-0.249,0.73,0.73,0,0,0-.765,1.216,2.3,2.3,0,0,0,.4.26c0.644,0.365,2.155,1.2,2.155,1.2l-1.805,2.9H374.6a0.6,0.6,0,0,0-.6.6V176.4a0.6,0.6,0,0,0,.6.6h22.378a0.6,0.6,0,0,0,.6-0.6v-0.314a0.6,0.6,0,0,0-.6-0.6h-0.71A0.828,0.828,0,0,0,395.5,174.766Zm-5.994-.02a1.984,1.984,0,0,1,1.842-.074c0.664,0.291,1.345.567,2.023,0.818h-5.3C388.546,175.239,389.025,175,389.507,174.746ZM378.8,173s3.007,1.633,4.515,2.487h-5.987Zm0.791-3.659a1.242,1.242,0,1,0-1.312,1.186A1.24,1.24,0,0,0,379.589,169.344ZM386.377,154a11.588,11.588,0,0,0-11.627,11.523,0.628,0.628,0,0,0,1.033.471,4.44,4.44,0,0,1,2.5-.956,2.907,2.907,0,0,1,2.08.924,0.568,0.568,0,0,0,.447.181,0.633,0.633,0,0,0,.445-0.188,4.017,4.017,0,0,1,2.452-1.056,3.492,3.492,0,0,1,2.1.893v5.948a0.5,0.5,0,0,0,.228.036,4.655,4.655,0,0,0,1.04-.326v-5.658a2.594,2.594,0,0,1,2.035-.892,3.793,3.793,0,0,1,2.4,1.056,0.608,0.608,0,0,0,.436.187,0.594,0.594,0,0,0,.442-0.181,2.9,2.9,0,0,1,2.078-.924,4.417,4.417,0,0,1,2.5.957,0.631,0.631,0,0,0,.668.091,0.62,0.62,0,0,0,.365-0.563A11.586,11.586,0,0,0,386.377,154Zm-2.895,1.662h0Zm-3.31,8.544-0.022-.013a3.893,3.893,0,0,0-1.866-.432,5.078,5.078,0,0,0-2.213.573,10.363,10.363,0,0,1,7.4-8.669C381.684,157.317,380.412,160.449,380.172,164.207Zm5.639-7.1v7.14a4.559,4.559,0,0,0-2.1-.587,4.644,4.644,0,0,0-2.263.569c0.3-4.361,1.881-7.921,4.366-8.5v1.373h0Zm5.537,7.135a4.429,4.429,0,0,0-2.234-.616,3.315,3.315,0,0,0-2.035.621v-8.513c2.079,0.576,4,4.152,4.3,8.527Zm3.122-.444a3.863,3.863,0,0,0-1.863.4c-0.241-3.741-1.459-6.859-3.236-8.512a10.331,10.331,0,0,1,7.312,8.669A5.07,5.07,0,0,0,394.47,163.8Zm-14.154,7.946c1.418,0.786,2.838,1.585,4.245,2.39a1.776,1.776,0,0,0,.887.27,1.743,1.743,0,0,0,.869-0.248c0.939-.536,1.894-1.041,2.842-1.561a2.074,2.074,0,0,1,1-.273,2.153,2.153,0,0,1,.838.182c1.144,0.481,2.3.925,3.459,1.378a1.94,1.94,0,0,0,.577.144h0.036a0.623,0.623,0,0,0,.6-0.451,0.705,0.705,0,0,0-.236-0.8,1.908,1.908,0,0,0-.38-0.176c-1.385-.524-2.783-1.021-4.153-1.579a2.3,2.3,0,0,0-1.991.073,22.84,22.84,0,0,1-2.906,1.114,1.7,1.7,0,0,1-.868-0.266c-1.188-.7-3.1-1.771-3.971-2.234a1.078,1.078,0,0,0-1.541.967A1.19,1.19,0,0,0,380.316,171.743Z" transform="translate(-374 -154)"/>
</svg>
